<?xml version="1.0" encoding="utf-8"?>
<!-- Generator: Adobe Illustrator 27.3.1, SVG Export Plug-In . SVG Version: 6.00 Build 0)  -->
<svg version="1.1" id="Capa_1" xmlns="http://www.w3.org/2000/svg" xmlns:xlink="http://www.w3.org/1999/xlink" x="0px" y="0px"
	 viewBox="0 0 296 65" style="enable-background:new 0 0 296 65;" xml:space="preserve">
<style type="text/css">
	.st0{fill:none;stroke:#530687;stroke-miterlimit:10;}
	.st1{fill:#FFFFFF;stroke:#000000;stroke-miterlimit:10;}
	.st2{fill:none;stroke:#000000;stroke-miterlimit:10;}
	.st3{stroke:#000000;stroke-miterlimit:10;}
	.st4{fill:#53F3E5;}
	.st5{fill:#330163;}
	.st6{fill:#530687;}
	.st7{fill:#6D327B;}
	.st8{fill:#F1E57B;}
	.st9{fill:#A9ADAA;}
	.st10{fill:#948F8F;}
	.st11{fill:#E33E63;}
	.st12{fill:#E9C932;}
	.st13{fill:#58D192;}
	.st14{fill:#58D192;stroke:#58D192;stroke-width:0.1318;stroke-miterlimit:10;}
	.st15{fill:#262222;}
	.st16{stroke:#000000;stroke-width:2;stroke-miterlimit:10;}
	.st17{fill:#FFFFFF;stroke:#FFFFFF;stroke-width:2;stroke-miterlimit:10;}
	.st18{fill:#FFFFFF;stroke:#FFFFFF;stroke-miterlimit:10;}
	.st19{fill:#333333;stroke:#333333;stroke-width:2;stroke-miterlimit:10;}
	.st20{fill:#333333;}
	.st21{fill:#FFFFFF;}
</style>
<rect width="296" height="65"/>
<g>
	<g>
		<g>
			<path class="st17" d="M48.34,37.19v7.68c0,1.02-0.1,1.84-0.3,2.45c-0.2,0.61-0.57,1.16-1.11,1.65c-0.54,0.49-1.23,0.97-2.06,1.42
				c-2.42,1.31-4.76,2.27-7,2.87s-4.69,0.9-7.33,0.9c-3.08,0-5.89-0.47-8.42-1.42c-2.53-0.95-4.69-2.32-6.48-4.13
				c-1.79-1.8-3.16-3.99-4.12-6.56s-1.44-5.44-1.44-8.61c0-3.12,0.46-5.97,1.39-8.56c0.93-2.59,2.3-4.79,4.1-6.59s4-3.19,6.59-4.14
				c2.59-0.96,5.52-1.44,8.8-1.44c2.7,0,5.09,0.36,7.16,1.08c2.08,0.72,3.76,1.63,5.06,2.72c1.29,1.09,2.27,2.25,2.93,3.47
				c0.66,1.22,0.98,2.31,0.98,3.25c0,1.02-0.38,1.89-1.13,2.61c-0.76,0.72-1.66,1.08-2.72,1.08c-0.58,0-1.14-0.14-1.68-0.41
				c-0.54-0.27-0.99-0.66-1.35-1.15c-1-1.57-1.85-2.75-2.54-3.55c-0.69-0.8-1.63-1.48-2.8-2.02s-2.68-0.82-4.5-0.82
				c-1.88,0-3.55,0.32-5.03,0.97c-1.48,0.65-2.74,1.59-3.79,2.82c-1.05,1.23-1.85,2.74-2.41,4.53c-0.56,1.79-0.83,3.76-0.83,5.93
				c0,4.7,1.08,8.32,3.24,10.86c2.16,2.53,5.17,3.8,9.04,3.8c1.88,0,3.64-0.25,5.29-0.74c1.65-0.49,3.32-1.19,5.02-2.11v-6.51h-6.29
				c-1.51,0-2.66-0.23-3.43-0.68c-0.77-0.46-1.16-1.23-1.16-2.32c0-0.89,0.32-1.63,0.97-2.21c0.65-0.58,1.53-0.88,2.64-0.88h9.21
				c1.13,0,2.09,0.1,2.87,0.3c0.78,0.2,1.42,0.65,1.9,1.34C48.1,34.77,48.34,35.81,48.34,37.19z"/>
			<path class="st17" d="M65.75,36.34h-2.84v12.88c0,1.7-0.37,2.94-1.12,3.75c-0.75,0.8-1.72,1.2-2.93,1.2
				c-1.29,0-2.3-0.42-3.01-1.26c-0.71-0.84-1.07-2.07-1.07-3.69V18.38c0-1.75,0.39-3.02,1.18-3.8c0.78-0.78,2.05-1.18,3.8-1.18
				h13.21c1.82,0,3.38,0.08,4.68,0.23c1.29,0.16,2.46,0.47,3.5,0.94c1.26,0.53,2.37,1.29,3.34,2.27c0.97,0.98,1.7,2.13,2.2,3.43
				c0.5,1.3,0.75,2.68,0.75,4.14c0,2.99-0.84,5.38-2.53,7.16c-1.69,1.79-4.24,3.05-7.67,3.8c1.44,0.77,2.82,1.9,4.13,3.39
				c1.31,1.5,2.48,3.09,3.51,4.77c1.03,1.69,1.83,3.21,2.41,4.57c0.57,1.36,0.86,2.29,0.86,2.8c0,0.53-0.17,1.05-0.51,1.57
				c-0.34,0.52-0.8,0.93-1.38,1.23c-0.58,0.3-1.26,0.45-2.02,0.45c-0.91,0-1.68-0.21-2.3-0.64c-0.62-0.43-1.15-0.97-1.6-1.63
				c-0.45-0.66-1.05-1.62-1.82-2.9l-3.25-5.41c-1.17-1.99-2.21-3.5-3.13-4.54c-0.92-1.04-1.85-1.75-2.8-2.13
				C68.39,36.54,67.19,36.34,65.75,36.34z M70.4,19.5h-7.49v11.02h7.27c1.95,0,3.59-0.17,4.92-0.51c1.33-0.34,2.35-0.91,3.05-1.72
				c0.7-0.81,1.05-1.93,1.05-3.35c0-1.11-0.28-2.09-0.85-2.94c-0.57-0.85-1.35-1.48-2.35-1.9C75.06,19.7,73.19,19.5,70.4,19.5z"/>
			<path class="st17" d="M119.54,48.95l-1.91-5.03h-16.3l-1.91,5.14c-0.75,2.01-1.39,3.36-1.91,4.06c-0.53,0.7-1.39,1.05-2.6,1.05
				c-1.02,0-1.92-0.37-2.71-1.12c-0.78-0.75-1.18-1.59-1.18-2.54c0-0.55,0.09-1.11,0.27-1.7c0.18-0.58,0.48-1.39,0.9-2.43
				l10.25-26.03c0.29-0.75,0.64-1.64,1.05-2.69c0.41-1.05,0.85-1.92,1.31-2.61c0.46-0.69,1.08-1.25,1.83-1.68
				c0.76-0.43,1.69-0.64,2.8-0.64c1.13,0,2.07,0.21,2.83,0.64c0.76,0.43,1.37,0.98,1.83,1.65c0.46,0.67,0.86,1.4,1.18,2.17
				c0.32,0.78,0.72,1.81,1.22,3.1l10.47,25.87c0.82,1.97,1.23,3.4,1.23,4.29c0,0.93-0.39,1.78-1.16,2.56
				c-0.77,0.77-1.71,1.16-2.8,1.16c-0.64,0-1.19-0.11-1.64-0.34c-0.46-0.23-0.84-0.54-1.15-0.93c-0.31-0.39-0.64-0.99-1-1.8
				C120.1,50.29,119.79,49.57,119.54,48.95z M103.46,37.82h11.98l-6.04-16.54L103.46,37.82z"/>
			<path class="st17" d="M148.49,37.88h-7.44v11.35c0,1.62-0.38,2.85-1.15,3.69c-0.77,0.84-1.73,1.26-2.9,1.26
				c-1.22,0-2.21-0.42-2.95-1.24c-0.75-0.83-1.12-2.05-1.12-3.65v-30.9c0-1.79,0.41-3.06,1.23-3.83s2.12-1.15,3.91-1.15h10.42
				c3.08,0,5.45,0.24,7.11,0.71c1.64,0.46,3.06,1.21,4.25,2.27c1.19,1.06,2.1,2.35,2.72,3.88c0.62,1.53,0.93,3.25,0.93,5.17
				c0,4.08-1.26,7.18-3.77,9.28S153.47,37.88,148.49,37.88z M146.52,19.5h-5.47v12.25h5.47c1.91,0,3.51-0.2,4.8-0.6
				c1.29-0.4,2.26-1.06,2.94-1.97c0.67-0.91,1.01-2.11,1.01-3.58c0-1.77-0.52-3.21-1.56-4.32C152.55,20.09,150.15,19.5,146.52,19.5z
				"/>
			<path class="st17" d="M177.23,17.64v11.48h17.53V17.64c0-1.64,0.37-2.87,1.11-3.69s1.71-1.23,2.91-1.23
				c1.22,0,2.21,0.41,2.97,1.22c0.76,0.81,1.13,2.05,1.13,3.71v31.58c0,1.66-0.38,2.9-1.15,3.72s-1.75,1.23-2.95,1.23
				c-1.22,0-2.2-0.42-2.93-1.24c-0.73-0.83-1.09-2.06-1.09-3.71V35.74h-17.53v13.48c0,1.66-0.38,2.9-1.15,3.72s-1.75,1.23-2.95,1.23
				c-1.22,0-2.2-0.42-2.93-1.24c-0.73-0.83-1.09-2.06-1.09-3.71V17.64c0-1.64,0.36-2.87,1.08-3.69c0.72-0.82,1.7-1.23,2.94-1.23
				c1.22,0,2.21,0.41,2.97,1.22C176.85,14.75,177.23,15.98,177.23,17.64z"/>
			<path class="st17" d="M240.3,47.92c-0.65-0.59-1.61-0.89-2.88-0.89h-18.92v-11.4c0-2.04,0-4.08,0-6.12v-9.84h18.29
				c1.29,0,2.26-0.29,2.88-0.86s0.94-1.33,0.94-2.28c0-0.93-0.31-1.68-0.94-2.26s-1.59-0.86-2.88-0.86h-21.44
				c-1.15,0-2.09,0.17-2.83,0.51c-0.74,0.34-1.28,0.88-1.63,1.61c-0.35,0.74-0.52,1.69-0.52,2.86v30.13c0,1.75,0.39,3.02,1.16,3.8
				c0.77,0.78,2.05,1.18,3.81,1.18h22.07c1.28,0,2.24-0.3,2.88-0.89c0.65-0.59,0.97-1.36,0.97-2.31
				C241.27,49.3,240.94,48.52,240.3,47.92z"/>
		</g>
	</g>
	<g>
		<path class="st18" d="M275.7,51.18l-3.22-3.22l6.44-6.44l3.22,3.22c1.78,1.78,1.78,4.66,0,6.44v0
			C280.37,52.95,277.48,52.95,275.7,51.18z"/>
		
			<rect x="239.33" y="28.91" transform="matrix(0.7071 0.7071 -0.7071 0.7071 95.0985 -162.6509)" class="st18" width="9.11" height="9.11"/>
		
			<rect x="226.4" y="28.87" transform="matrix(0.7071 0.7071 -0.7071 0.7071 91.2773 -153.5189)" class="st18" width="9.11" height="9.11"/>
		<polygon class="st18" points="264.42,26.98 258.03,20.58 257.98,20.53 251.59,14.14 245.14,20.58 251.53,26.98 251.59,27.03 
			257.98,33.42 251.53,39.86 245.09,46.31 251.53,52.75 257.98,46.31 264.42,39.86 270.86,33.42 		"/>
		<path class="st18" d="M270.86,33.42l-6.51-6.51l11.4-11.4c1.8-1.8,4.71-1.8,6.51,0v0c1.8,1.8,1.8,4.71,0,6.51L270.86,33.42z"/>
	</g>
</g>
</svg>
