<?xml version="1.0" encoding="utf-8"?>
<!-- Generator: Adobe Illustrator 27.3.1, SVG Export Plug-In . SVG Version: 6.00 Build 0)  -->
<svg version="1.1" id="Capa_1" xmlns="http://www.w3.org/2000/svg" xmlns:xlink="http://www.w3.org/1999/xlink" x="0px" y="0px"
	 viewBox="0 0 104 85.39" style="enable-background:new 0 0 104 85.39;" xml:space="preserve">
<style type="text/css">
	.st0{fill:none;stroke:#530687;stroke-miterlimit:10;}
	.st1{fill:#FFFFFF;stroke:#000000;stroke-miterlimit:10;}
	.st2{fill:none;stroke:#000000;stroke-miterlimit:10;}
	.st3{stroke:#000000;stroke-miterlimit:10;}
	.st4{fill:#53F3E5;}
	.st5{fill:#330163;}
	.st6{fill:#530687;}
	.st7{fill:#6D327B;}
	.st8{fill:#F1E57B;}
	.st9{fill:#A9ADAA;}
	.st10{fill:#948F8F;}
	.st11{fill:#E33E63;}
	.st12{fill:#E9C932;}
	.st13{fill:#58D192;}
	.st14{fill:#58D192;stroke:#58D192;stroke-width:0.1318;stroke-miterlimit:10;}
	.st15{fill:#262222;}
	.st16{stroke:#000000;stroke-width:2;stroke-miterlimit:10;}
	.st17{fill:#FFFFFF;stroke:#FFFFFF;stroke-width:2;stroke-miterlimit:10;}
	.st18{fill:#FFFFFF;stroke:#FFFFFF;stroke-miterlimit:10;}
	.st19{fill:#333333;stroke:#333333;stroke-width:2;stroke-miterlimit:10;}
	.st20{fill:#333333;}
	.st21{fill:#FFFFFF;}
</style>
<rect width="104" height="85.39"/>
<g>
	<path class="st6" d="M77.4,64.24l-4.32-4.32l8.64-8.64l4.32,4.32c2.38,2.38,2.38,6.25,0,8.64l0,0
		C83.65,66.62,79.79,66.62,77.4,64.24z"/>
	
		<rect x="28.65" y="34.4" transform="matrix(0.7071 0.7071 -0.7071 0.7071 38.8202 -12.7147)" class="st13" width="12.21" height="12.21"/>
	
		<rect x="11.32" y="34.33" transform="matrix(0.7071 0.7071 -0.7071 0.7071 33.6984 -0.4748)" class="st13" width="12.21" height="12.21"/>
	<polygon class="st13" points="62.28,31.8 53.72,23.23 53.64,23.16 45.08,14.6 36.44,23.23 45.01,31.8 45.08,31.87 53.64,40.44 
		45.01,49.07 36.37,57.71 45.01,66.35 53.64,57.71 62.28,49.07 70.92,40.44 	"/>
	<path class="st21" d="M70.92,40.43l-8.72-8.72l15.27-15.27c2.41-2.41,6.32-2.41,8.72,0l0,0c2.41,2.41,2.41,6.32,0,8.72L70.92,40.43
		z"/>
</g>
</svg>
