<?xml version="1.0" encoding="utf-8"?>
<!-- Generator: Adobe Illustrator 27.3.1, SVG Export Plug-In . SVG Version: 6.00 Build 0)  -->
<svg version="1.1" id="Capa_1" xmlns="http://www.w3.org/2000/svg" xmlns:xlink="http://www.w3.org/1999/xlink" x="0px" y="0px"
	 viewBox="0 0 104 85.39" style="enable-background:new 0 0 104 85.39;" xml:space="preserve">
<style type="text/css">
	.st0{fill:none;stroke:#530687;stroke-miterlimit:10;}
	.st1{fill:#FFFFFF;stroke:#000000;stroke-miterlimit:10;}
	.st2{fill:none;stroke:#000000;stroke-miterlimit:10;}
	.st3{stroke:#000000;stroke-miterlimit:10;}
	.st4{fill:#53F3E5;}
	.st5{fill:#330163;}
	.st6{fill:#530687;}
	.st7{fill:#6D327B;}
	.st8{fill:#F1E57B;}
	.st9{fill:#A9ADAA;}
	.st10{fill:#948F8F;}
	.st11{fill:#E33E63;}
	.st12{fill:#E9C932;}
	.st13{fill:#58D192;}
	.st14{fill:#58D192;stroke:#58D192;stroke-width:0.1318;stroke-miterlimit:10;}
	.st15{fill:#262222;}
	.st16{stroke:#000000;stroke-width:2;stroke-miterlimit:10;}
	.st17{fill:#FFFFFF;stroke:#FFFFFF;stroke-width:2;stroke-miterlimit:10;}
	.st18{fill:#FFFFFF;stroke:#FFFFFF;stroke-miterlimit:10;}
	.st19{fill:#333333;stroke:#333333;stroke-width:2;stroke-miterlimit:10;}
	.st20{fill:#333333;}
	.st21{fill:#FFFFFF;}
</style>
<rect width="104" height="85.39"/>
<g>
	<path class="st21" d="M79.18,63.51l-4.32-4.32l8.64-8.64l4.32,4.32c2.38,2.38,2.38,6.25,0,8.64l0,0
		C85.43,65.89,81.57,65.89,79.18,63.51z"/>
	
		<rect x="30.43" y="33.67" transform="matrix(0.7071 0.7071 -0.7071 0.7071 38.8263 -14.1865)" class="st21" width="12.21" height="12.21"/>
	
		<rect x="13.09" y="33.6" transform="matrix(0.7071 0.7071 -0.7071 0.7071 33.7045 -1.9466)" class="st21" width="12.21" height="12.21"/>
	<polygon class="st21" points="64.06,31.07 55.5,22.51 55.42,22.43 46.86,13.87 38.22,22.51 46.79,31.07 46.86,31.14 55.42,39.71 
		46.79,48.34 38.15,56.98 46.79,65.62 55.42,56.98 64.06,48.34 72.7,39.71 	"/>
	<path class="st21" d="M72.7,39.7l-8.72-8.72l15.27-15.27c2.41-2.41,6.32-2.41,8.72,0l0,0c2.41,2.41,2.41,6.32,0,8.72L72.7,39.7z"/>
</g>
</svg>
